<?xml version="1.0" standalone="no"?><!DOCTYPE svg PUBLIC "-//W3C//DTD SVG 1.1//EN" "http://www.w3.org/Graphics/SVG/1.1/DTD/svg11.dtd"><svg t="1775914515142" class="icon" viewBox="0 0 1024 1024" version="1.1" xmlns="http://www.w3.org/2000/svg" p-id="4065" width="128" height="128" xmlns:xlink="http://www.w3.org/1999/xlink"><path d="M521.660377 57.962264a96.603774 96.603774 0 0 1 28.981132 188.763774V405.735849h-57.962264v-159.009811A96.642415 96.642415 0 0 1 521.660377 57.962264z" fill="#333C50" p-id="4066"></path><path d="M193.207547 463.698113a154.566038 154.566038 0 0 1 154.566038-154.566038h367.09434a154.566038 154.566038 0 0 1 154.566037 154.566038v251.169812a154.566038 154.566038 0 0 1-154.566037 154.566037h-144.905661a226.477887 226.477887 0 0 1-185.537207 96.603774h-49.345208a19.320755 19.320755 0 0 1-16.210113-29.850566L362.264151 869.433962H347.773585a154.566038 154.566038 0 0 1-154.566038-154.566037V463.698113z" fill="#64EDAC" p-id="4067"></path><path d="M908.075472 463.698113a96.603774 96.603774 0 0 1 96.603773 96.603774v77.283019a96.603774 96.603774 0 0 1-96.603773 96.603773V463.698113zM154.566038 734.188679a96.603774 96.603774 0 0 1-96.603774-96.603773v-77.283019a96.603774 96.603774 0 0 1 96.603774-96.603774v270.490566zM599.136604 654.471245a28.981132 28.981132 0 0 1 38.525585 43.297812L618.264151 676.226415c19.378717 21.542642 19.359396 21.561962 19.359396 21.561962l-0.057962 0.057963-0.115925 0.096603-0.251169 0.193208-0.618265 0.579623a106.805132 106.805132 0 0 1-8.153358 6.066717c-5.255245 3.535698-12.732377 7.998792-22.412076 12.365283-19.494642 8.771623-47.683623 17.040906-84.354415 17.040905-36.670792 0-64.859774-8.269283-84.335094-17.040905a150.837132 150.837132 0 0 1-22.431396-12.365283 106.805132 106.805132 0 0 1-8.153359-6.086038c-0.25117-0.193208-0.444377-0.386415-0.618264-0.540981l-0.25117-0.212529-0.115924-0.096603-0.057962-0.057963S405.677887 697.769057 425.056604 676.226415l-19.398038 21.542642a28.981132 28.981132 0 0 1 38.66083-43.181887v-0.038642l-0.135245-0.077283-0.057962-0.077283 0.367094 0.309132c0.483019 0.386415 1.410415 1.101283 2.801509 2.02868 2.801509 1.893434 7.399849 4.675623 13.795019 7.535094 12.732377 5.738264 32.845283 11.959547 60.570566 11.959547 27.725283 0 47.838189-6.221283 60.570566-11.940226 6.39517-2.898113 11.01283-5.660981 13.795019-7.535095 1.391094-0.966038 2.318491-1.680906 2.80151-2.048l0.367094-0.309132-0.057962 0.077283zM386.415094 463.698113c21.349434 0 38.641509 25.947774 38.64151 57.962264s-17.292075 57.962264-38.64151 57.962265-38.641509-25.947774-38.641509-57.962265 17.292075-57.962264 38.641509-57.962264z m270.490566 0c21.349434 0 38.641509 25.947774 38.64151 57.962264s-17.292075 57.962264-38.64151 57.962265-38.641509-25.947774-38.641509-57.962265 17.292075-57.962264 38.641509-57.962264z" fill="#333C50" p-id="4068"></path></svg>